<?xml version="1.0" encoding="UTF-8"?>
<svg id="Layer_1" data-name="Layer 1" xmlns="http://www.w3.org/2000/svg" viewBox="0 0 997.69 214.89">
  <defs>
    <style>
      .cls-1 {
        fill: #131214;
        isolation: isolate;
        opacity: .4;
      }

      .cls-1, .cls-2, .cls-3 {
        stroke-width: 0px;
      }

      .cls-2 {
        fill: #f70059;
        fill-rule: evenodd;
      }

      .cls-3 {
        fill: #fff;
      }
    </style>
  </defs>
  <path class="cls-1" d="m147.33,95.43c0,9.76-6.31,20.09-18.78,30.83-6.56,5.58-13.77,10.49-21.32,14.51-7.54-4.1-14.76-9.02-21.32-14.59-12.54-10.74-18.86-21.07-18.86-30.83,0-12.05,7.95-20.58,18.86-20.58,5,0,7.95.49,11.31,2.13,1.97.9,3.69,2.13,5.17,3.61l4.84,4.92,4.76-4.92c1.48-1.56,3.28-2.79,5.25-3.77,3.28-1.48,6.07-1.97,11.23-1.97,10.82.16,18.86,8.85,18.86,20.66Z"/>
  <path class="cls-1" d="m147.33,95.43c0,9.76-6.31,20.09-18.78,30.83-6.56,5.58-13.77,10.49-21.32,14.51-7.54-4.1-14.76-9.02-21.32-14.59-12.54-10.74-18.86-21.07-18.86-30.83,0-12.05,7.95-20.58,18.86-20.58,5,0,7.95.49,11.31,2.13,1.97.9,3.69,2.13,5.17,3.61l4.84,4.92,4.76-4.92c1.48-1.56,3.28-2.79,5.25-3.77,3.28-1.48,6.07-1.97,11.23-1.97,10.82.16,18.86,8.85,18.86,20.66Z"/>
  <path class="cls-2" d="m147.33,95.43c0,9.76-6.31,20.09-18.78,30.83-6.56,5.58-13.77,10.49-21.32,14.51-7.54-4.1-14.76-9.02-21.32-14.59-12.54-10.74-18.86-21.07-18.86-30.83,0-12.05,7.95-20.58,18.86-20.58,5,0,7.95.49,11.31,2.13,1.97.9,3.69,2.13,5.17,3.61l4.84,4.92,4.76-4.92c1.48-1.56,3.28-2.79,5.25-3.77,3.28-1.48,6.07-1.97,11.23-1.97,10.82.16,18.86,8.85,18.86,20.66Z"/>
  <path class="cls-3" d="m432.07,76.99c-7.87-7.87-18.86-12.79-30.91-12.79-24.1,0-43.7,19.6-43.7,43.7s19.6,43.7,43.7,43.7,43.7-19.6,43.7-43.7c.08-12.13-4.84-23.04-12.79-30.91Zm-14.02,47.72c-4.26,4.35-10.25,6.97-16.81,6.97-13.2,0-23.86-10.66-23.86-23.86s10.66-23.86,23.86-23.86,23.86,10.66,23.86,23.86c-.08,6.64-2.71,12.54-7.05,16.89Z"/>
  <path class="cls-3" d="m532.35,100.11v41.49c0,5.49-4.43,9.92-9.92,9.92s-9.92-4.43-9.92-9.92v-41.49c-.16-8.85-7.54-15.99-16.48-15.74-8.61.16-15.58,7.13-15.74,15.74v41.49c.16,5.49-4.18,10.08-9.67,10.25-5.49.16-10.08-4.18-10.25-9.67v-68.13c0-5.49,4.43-9.92,9.92-9.92,3.44,0,6.64,1.8,8.44,4.67,17.3-9.76,39.27-3.61,49.03,13.77,3.03,5.33,4.59,11.4,4.59,17.55h0Z"/>
  <path class="cls-3" d="m702.88,74.86c0,5.49-4.43,9.92-9.92,9.92-.74,0-1.56-.08-2.3-.25-8.61-2.21-17.38,2.95-19.59,11.56-.33,1.31-.49,2.62-.49,4.02v41.49c0,5.49-4.43,9.92-9.92,9.92s-9.92-4.43-9.92-9.92v-67.56c0-5.49,4.43-9.92,9.92-9.92,3.44,0,6.64,1.8,8.44,4.67,7.87-4.43,17.05-5.74,25.83-3.69l1.07.25c4.02,1.31,6.89,5.17,6.89,9.51Z"/>
  <path class="cls-3" d="m332.13,36.16c-5.58.08-10,4.67-9.92,10.25v24.84c-20.25-13.2-47.31-7.46-60.51,12.79-13.2,20.25-7.46,47.31,12.79,60.51,14.59,9.51,33.53,9.43,48.13-.25,1.39,5.25,6.81,8.44,12.13,7.05,4.43-1.23,7.54-5.25,7.38-9.92V46.49c0-5.66-4.43-10.25-10-10.33Zm-9.92,71.66c0,13.12-10.58,23.78-23.69,23.86h-.08c-13.2,0-23.86-10.66-23.86-23.86s10.66-23.86,23.86-23.86c13.12.08,23.78,10.74,23.78,23.86h0Z"/>
  <path class="cls-3" d="m786.26,71.49c-7.13-4.76-15.58-7.3-24.19-7.3s-16.73,2.46-23.86,7.05v-24.84c.16-5.49-4.18-10.08-9.67-10.25-5.49-.16-10.08,4.18-10.25,9.67v95.52c-.16,5.49,4.1,10,9.59,10.17,4.59.16,8.69-2.87,9.84-7.38,20.09,13.36,47.22,7.95,60.59-12.13,13.45-20,8.04-47.14-12.05-60.51Zm-.41,36.32c0,13.12-10.58,23.78-23.69,23.86h-.08c-13.2,0-23.86-10.66-23.86-23.78s10.66-23.86,23.78-23.86c13.12-.08,23.86,10.58,23.86,23.78h0Z"/>
  <path class="cls-3" d="m622.37,76.99c-7.95-7.87-18.86-12.79-30.91-12.79-24.1,0-43.7,19.6-43.7,43.7s19.59,43.7,43.7,43.7,43.7-19.6,43.7-43.7c0-12.13-4.84-23.04-12.79-30.91Zm-30.91,54.69h0c-13.2,0-23.86-10.66-23.86-23.86s10.66-23.78,23.86-23.78,23.78,10.66,23.78,23.86c.08,13.12-10.58,23.78-23.78,23.78Z"/>
  <path class="cls-3" d="m864.89,64.11c-24.1,0-43.7,19.6-43.7,43.7s19.59,43.7,43.7,43.7,43.7-19.6,43.7-43.7c0-24.1-19.6-43.62-43.7-43.7Zm23.78,43.7c0,13.12-10.66,23.78-23.78,23.86-13.2,0-23.86-10.66-23.86-23.78s10.66-23.86,23.78-23.86,23.86,10.66,23.86,23.78h0Z"/>
  <path class="cls-3" d="m995.49,135.2c3.44,4.26,2.79,10.49-1.56,13.94-4.18,3.36-10.33,2.79-13.77-1.31l-20.09-24.43-20.17,24.43c-3.53,4.26-9.76,4.84-14.02,1.31-4.26-3.53-4.84-9.76-1.31-14.02l22.63-27.38-22.63-27.38c-3.53-4.26-2.87-10.49,1.31-14.02,4.26-3.53,10.49-2.87,14.02,1.31h0l20.17,24.43,20.17-24.43c3.69-4.02,10-4.35,14.02-.66,3.77,3.44,4.26,9.18,1.31,13.28l-22.63,27.38,22.55,27.55Z"/>
  <path class="cls-3" d="m214.89,20.58v173.73c0,11.4-9.18,20.58-20.58,20.58H20.58c-11.4,0-20.58-9.18-20.58-20.58V20.58C0,9.18,9.18,0,20.58,0h86.66c2.87,0,5.41,1.15,7.3,3.03,1.8,1.89,3.03,4.43,3.03,7.3v30.17c0,5.66-4.59,10.33-10.33,10.33s-10.33-4.59-10.33-10.33v-19.84H30.42c-5.41,0-9.84,4.43-9.84,9.84v154.14c0,5.49,4.43,9.84,9.84,9.84h154.14c5.41,0,9.84-4.35,9.84-9.84V30.5c0-.74-.16-4.26-2.95-6.97,0,0-2.3-2.21-5.17-2.71-.33-.08-.74-.08-.74-.08-.33,0-.66-.08-.98-.08h-26.89c-5.66,0-10.33-4.67-10.33-10.33S152.01,0,157.66,0h36.65c11.4-.08,20.58,9.18,20.58,20.58Z"/>
</svg>